<?xml version="1.0" standalone="no"?><svg xmlns="http://www.w3.org/2000/svg" viewBox="0 0 1440 320"><path fill="#006400" fill-opacity="1" d="M0,32L34.3,74.7C68.6,117,137,203,206,224C274.3,245,343,203,411,160C480,117,549,75,617,90.7C685.7,107,754,181,823,208C891.4,235,960,213,1029,186.7C1097.1,160,1166,128,1234,117.3C1302.9,107,1371,117,1406,122.7L1440,128L1440,320L1405.7,320C1371.4,320,1303,320,1234,320C1165.7,320,1097,320,1029,320C960,320,891,320,823,320C754.3,320,686,320,617,320C548.6,320,480,320,411,320C342.9,320,274,320,206,320C137.1,320,69,320,34,320L0,320Z"></path></svg>