<svg width="800" height="800" viewBox="0 0 800 800" fill="none" xmlns="http://www.w3.org/2000/svg">
<rect width="800" height="800" fill="transparent"/>
<rect x="400.2" y="254.654" width="84.482" height="84.482" rx="42.241" transform="rotate(45 400.2 254.654)" fill="black"/>
<rect x="654.491" y="339.136" width="84.482" height="84.482" rx="42.241" transform="rotate(45 654.491 339.136)" fill="black"/>
<rect x="400.2" y="84" width="325.256" height="84.482" rx="42.241" transform="rotate(45 400.2 84)" fill="black"/>
<rect x="340.463" y="484.645" width="325.256" height="84.482" rx="42.241" transform="rotate(-45 340.463 484.645)" fill="black"/>
<rect x="229.547" y="254.654" width="325.256" height="84.482" rx="42.241" transform="rotate(45 229.547 254.654)" fill="black"/>
<rect x="340.463" y="655.298" width="325.256" height="84.482" rx="42.241" transform="rotate(-45 340.463 655.298)" fill="black"/>
<rect x="510.271" y="655.298" width="325.256" height="84.482" rx="42.241" transform="rotate(-45 510.271 655.298)" fill="black"/>
<rect x="229.547" y="425.308" width="325.256" height="84.482" rx="42.241" transform="rotate(45 229.547 425.308)" fill="black"/>
<rect x="59.7378" y="425.308" width="325.256" height="84.482" rx="42.241" transform="rotate(45 59.7378 425.308)" fill="black"/>
<rect y="484.645" width="325.256" height="84.482" rx="42.241" transform="rotate(-45 0 484.645)" fill="black"/>
<rect x="254.945" y="228.855" width="204.856" height="84.482" rx="42.241" transform="rotate(-45 254.945 228.855)" fill="black"/>
</svg>
